# xmcd
#
# Track frame offsets:
#	150
#	17087
#	33705
#	47862
#	64385
#	76400
#	89400
#	107500
#	122755
#	141180
#	155530
#	168705
#
# Disc length: 2437
#
# Revision: 1
# Processed by: cddbd v1.5.1PL0 Copyright (c) Steve Scherf et al.
# Submitted via: VisiTrax 2.9.5.180 - For more info visit www.synapsa.com
# Normalized: r0:DSETVAR1
#
DISCID=a609830c
DTITLE=Various Artist - CDX 151 December 1996
DYEAR=1996
DGENRE=
TTITLE0=Kathy Mattea - 455 Rocket
TTITLE1=Larry Stewart - Always a woman
TTITLE2=Martina McBride - Cry on the shoulder of the road
TTITLE3=Ricochet - Ease my troubled mind
TTITLE4=Bill Engvall/Travis Tritt - Here's our sign(get the picture)
TTITLE5=Wade Hayes - It's over my head
TTITLE6=Bryan Smith - Jack of all trades
TTITLE7=Steve Azar - Love had no right
TTITLE8=Trace Adkins - (This ain't) No thinkin' thing
TTITLE9=Mitch Foreman - The grass ain't all that's blue In Kentucky
TTITLE10=Mickey Utley - When the sun goes down
TTITLE11=Rick Corum - You haven't even said good-bye
EXTD=
EXTT0=
EXTT1=
EXTT2=
EXTT3=
EXTT4=
EXTT5=
EXTT6=
EXTT7=
EXTT8=
EXTT9=
EXTT10=
EXTT11=
PLAYORDER=
